PathFileType	3	(X/Y/Z)	D:\minhoCalibration\240510\subject3_KPNP\preferred\preferred02.trc
DataRate	CameraRate	NumFrames	NumMarkers	Units	OrigDataRate	OrigDataStartFrame	OrigNumFrames
200.0	200.0	30	10	mm	200.0	195	111	
Frame#	Time	Left_Ankle_Outer1			Left_Ankle_Inner1			Left_Knee_Outer1			Left_Knee_Inner1			Left_Wrist1			Right_Wrist1			Right_Knee_Inner1			Right_Knee_Outer1			Right_Ankle_Inner1			Right_Ankle_Outer1			
		X1	Y1	Z1	X2	Y2	Z2	X3	Y3	Z3	X4	Y4	Z4	X5	Y5	Z5	X6	Y6	Z6	X7	Y7	Z7	X8	Y8	Z8	X9	Y9	Z9	X10	Y10	Z10	
195	0.965	-300.4924	88.827156	-577.38843	-355.25232	100.86526	-578.71167	-213.02672	500.46075	-431.17151	-315.98633	504.04013	-419.39203	-163.41949	891.62189	-578.41486	-523.94025	913.96753	-631.35199	-577.50085	455.33691	-628.38788	-659.63428	534.50848	-678.21802	-453.59656	286.23666	-992.40851	-546.22052	304.97784	-1045.584
196	0.97	-299.21912	90.482765	-576.89001	-354.09958	102.26724	-577.9455	-211.00665	501.64557	-431.3364	-313.82294	505.14053	-419.24341	-159.73901	894.09717	-577.94318	-522.04541	918.5799	-620.24658	-575.55688	458.35391	-611.75415	-661.49731	538.03119	-658.75702	-458.69476	299.45383	-979.17731	-552.06348	318.01474	-1030.403
197	0.975	-298.1731	91.912041	-576.39386	-353.18048	103.85719	-577.23956	-208.72916	503.02298	-431.66483	-311.84753	506.56927	-418.89615	-156.05606	896.68219	-577.90521	-519.40363	923.07239	-609.48798	-573.44635	462.22861	-593.30701	-663.88403	543.03192	-636.06689	-463.646	312.66821	-965.284	-556.22644	333.76718	-1017.1066
198	0.98	-297.255	93.305801	-575.72552	-352.28412	105.6091	-576.46423	-206.39418	504.51672	-432.30615	-309.2464	507.86221	-419.22028	-152.74117	899.03906	-578.01862	-517.28668	927.93011	-598.10461	-571.03485	466.40515	-575.73602	-665.20038	547.75854	-614.54626	-468.41452	326.09836	-951.02136	-562.47205	347.75415	-999.65021
199	0.985	-296.58139	94.883774	-575.12488	-351.56894	107.5062	-575.75348	-203.66924	506.05823	-433.15402	-306.05411	509.25696	-419.56146	-149.43787	901.55109	-578.53497	-514.32397	933.19019	-587.48926	-568.29266	471.1409	-557.95483	-666.01715	553.37085	-591.27081	-473.38727	339.60382	-936.28217	-568.89819	361.67587	-981.44897
200	0.99	-295.9313	96.608009	-574.50073	-350.94495	109.49355	-574.78711	-201.08809	507.70013	-434.17099	-303.23306	511.06989	-419.95554	-145.25919	904.27594	-579.91919	-511.06549	939.04315	-576.30908	-565.31378	476.41458	-539.95697	-666.22174	559.43634	-568.32819	-479.15042	353.28558	-921.25183	-573.71979	378.56757	-964.88428
201	0.995	-295.52609	98.620972	-573.92358	-350.5137	111.60683	-573.72528	-198.09187	509.41736	-435.50394	-300.14484	512.88263	-420.2822	-141.6786	906.62085	-581.45447	-506.936	945.30353	-565.58368	-562.33868	482.22821	-521.65845	-665.73438	566.18604	-545.1275	-484.65625	366.97198	-905.64038	-579.94592	394.00928	-947.30695
202	1	-295.18228	100.50893	-573.37183	-350.29688	113.84086	-572.54077	-194.88788	511.16119	-437.16272	-296.82834	514.87402	-420.38837	-138.09222	909.2254	-583.54877	-503.33218	951.29382	-554.6062	-559.28583	488.7511	-503.17471	-664.53052	573.54199	-521.80847	-490.681	380.67404	-889.55865	-587.51483	409.11774	-927.12946
203	1.005	-294.90591	102.45982	-572.64056	-350.07822	116.22831	-571.08374	-191.52812	512.95325	-438.97238	-293.31113	516.87714	-420.31549	-136.6364	910.83649	-585.6095	-498.83722	957.45758	-544.30219	-556.28094	496.02313	-484.04401	-662.7865	581.60114	-498.3396	-497.07288	394.4577	-872.90027	-594.11798	425.10135	-908.51355
204	1.01	-294.85849	104.73997	-571.88873	-349.92511	118.70365	-569.64539	-188.09802	514.70917	-440.89133	-289.34164	518.75043	-420.34235	-132.64894	913.33472	-588.80798	-492.47977	964.54529	-534.32397	-553.33484	504.14639	-464.31189	-660.32477	590.45697	-474.91843	-503.95166	408.28665	-855.84161	-601.60431	441.51242	-888.74274
205	1.015	-294.8598	106.92527	-570.98193	-349.90942	121.35052	-567.95483	-184.51709	516.62433	-443.14935	-284.9953	521.23175	-419.86948	-129.92763	915.43176	-592.14557	-487.61514	971.44324	-523.4743	-550.28802	513.08759	-443.93951	-657.34833	600.18689	-451.60547	-510.84357	422.28326	-838.13336	-610.29095	455.49841	-866.49194
206	1.02	-294.76718	109.29078	-570.05164	-349.99637	123.94495	-566.03357	-181.00563	518.58844	-445.34848	-280.78491	523.40948	-419.24158	-127.99501	917.18414	-595.7254	-481.86295	977.83618	-515.41541	-546.82513	522.75928	-422.67911	-653.87506	610.95258	-428.3783	-518.54346	436.51337	-820.12292	-617.89868	472.02112	-846.19958
207	1.025	-295.48285	111.42151	-568.76184	-349.92825	126.53201	-564.30237	-177.62592	520.47803	-447.97449	-276.13718	526.10132	-418.0007	-125.92846	918.91724	-599.82507	-475.5921	984.95038	-506.73212	-543.18811	533.30573	-401.31729	-649.52539	622.31104	-405.60486	-526.79547	450.61227	-801.05469	-626.16565	488.42358	-824.35529
208	1.03	-295.2258	113.87939	-567.92328	-350.08563	129.21207	-562.29712	-174.02029	522.54358	-450.37949	-270.99841	528.83783	-417.31992	-123.24766	920.64606	-604.43933	-469.01273	991.96008	-499.51175	-539.19641	544.58466	-379.78793	-644.96436	634.80505	-383.01306	-535.16376	464.93549	-781.45807	-635.48187	504.19641	-800.58093
209	1.035	-295.46854	116.23492	-566.88092	-350.26993	131.95634	-559.96313	-170.24786	524.6731	-452.97205	-266.09488	531.46552	-416.18851	-120.77851	922.35242	-609.44904	-462.52283	999.02759	-492.35135	-534.88165	556.66687	-358.49533	-639.74731	648.22516	-360.43161	-544.13129	479.12207	-761.1051	-645.5116	515.74097	-773.97552
210	1.04	-296.02316	118.21264	-565.58185	-350.43259	134.44318	-557.67566	-166.64418	526.57568	-455.62955	-260.80215	533.8623	-415.28516	-119.21101	923.73212	-614.43896	-456.04446	1006.1826	-485.60214	-530.0144	569.43286	-336.92084	-633.76038	662.48627	-338.20749	-553.21222	493.26334	-740.01556	-652.46771	534.03235	-749.4035
211	1.045	-296.48944	120.28261	-564.39435	-350.72595	137.04167	-555.052	-163.41852	528.42725	-458.2002	-255.40549	536.71674	-414.17297	-117.66466	925.01093	-619.74652	-448.9791	1013.1651	-480.40198	-524.61237	582.85956	-315.50226	-626.96411	677.60065	-316.01953	-561.89203	507.41278	-718.73419	-663.37549	551.15344	-730.35107
212	1.05	-296.31549	122.62567	-563.72968	-350.97214	139.34085	-552.67078	-160.08789	530.23083	-461.02936	-250.2191	539.12457	-413.25586	-116.12318	926.34674	-625.21069	-442.28702	1020.5223	-474.38766	-518.67059	597.10974	-294.436	-619.50348	693.58752	-294.05432	-571.8075	520.98053	-696.07758	-673.46564	564.88336	-697.17987
213	1.055	-297.4747	123.91931	-562.26508	-351.21112	141.49982	-550.41968	-157.05713	531.84991	-463.95422	-244.7576	541.4679	-412.67938	-115.22707	927.31891	-630.65454	-435.51239	1027.7736	-469.40723	-511.92493	612.06958	-273.7612	-611.05811	710.52338	-272.33228	-581.60724	534.37231	-672.68939	-679.26776	579.56317	-673.38623
214	1.06	-297.21945	126.10416	-561.74536	-351.48428	143.35712	-548.01013	-154.14024	533.3183	-467.00015	-239.34747	543.84052	-411.9046	-114.63747	928.00763	-636.02521	-428.89435	1034.7552	-465.08438	-504.36276	627.70996	-253.55917	-601.56177	728.10162	-251.08507	-591.3764	547.45367	-649.12109	-688.67542	594.1073	-646.57874
215	1.065	-297.8959	127.71361	-560.7995	-351.8349	145.14352	-545.80035	-151.44189	534.41559	-470.14267	-234.55035	545.39581	-411.59619	-114.38994	928.60199	-641.39429	-422.08823	1041.7773	-461.2059	-496.09998	644.03918	-234.04356	-590.8551	746.32043	-230.82532	-601.35706	559.89532	-624.17407	-698.59424	608.97754	-615.48138
216	1.07	-298.57651	129.18425	-560.06366	-352.37119	146.83195	-543.48322	-148.62877	535.34277	-473.62146	-229.69283	546.60437	-411.85492	-114.16396	929.11255	-646.85199	-415.5863	1048.4575	-457.7486	-487.11029	660.87988	-215.14507	-579.53601	765.43805	-210.46077	-611.43103	572.37097	-598.61694	-705.95013	622.97797	-589.98999
217	1.075	-300.04718	130.28564	-559.00708	-352.9458	148.24922	-541.10272	-146.94531	535.83447	-476.50769	-224.99138	547.82568	-411.58762	-114.41369	929.47668	-652.15131	-408.62888	1055.2924	-454.89343	-477.54919	678.26965	-197.05859	-566.8985	785.36523	-190.75836	-621.46655	584.49756	-572.25275	-714.84271	637.65594	-558.09973
218	1.08	-301.1925	131.49777	-558.14996	-353.78735	149.67639	-538.93976	-145.11179	536.27863	-479.51642	-220.36275	548.91388	-412.01337	-114.72279	929.7229	-657.46655	-402.39581	1061.5337	-452.33472	-467.20853	696.19165	-179.86385	-553.17615	804.98486	-173.32727	-631.14172	596.52362	-545.11432	-723.04883	651.14404	-529.33813
219	1.085	-302.42538	132.63783	-557.50397	-354.71863	150.91862	-536.93872	-143.80559	536.46368	-482.28461	-217.1806	549.10913	-412.31497	-115.24259	929.9538	-662.67743	-396.3703	1067.9957	-449.74933	-455.99121	714.38678	-163.11583	-538.90491	825.51703	-155.90448	-640.9295	608.13049	-516.86786	-730.1167	664.96655	-492.94824
220	1.09	-303.84674	133.67473	-556.69708	-355.68423	152.17964	-535.17676	-142.82295	536.51056	-484.77118	-214.22223	549.21509	-412.17865	-116.1598	930.1272	-667.74823	-390.18771	1074.1643	-447.99258	-444.57281	732.83667	-147.3002	-523.54645	846.40253	-139.86107	-650.28583	619.70117	-487.71494	-737.90369	679.38031	-464.72211
221	1.095	-306.09155	133.93454	-555.64362	-356.69791	153.3215	-533.4798	-142.6147	536.21381	-486.65253	-211.75496	549.46521	-413.07254	-117.3857	930.14441	-672.62488	-384.32153	1079.8481	-446.55334	-432.54407	751.54456	-132.3253	-507.41452	867.03333	-125.60616	-659.72266	631.13177	-457.08453	-744.93768	692.99255	-431.62454
222	1.1	-307.33762	134.89722	-555.12286	-357.73404	154.26437	-532.08093	-141.52092	536.36407	-488.37302	-209.56776	549.60785	-412.82025	-118.65852	930.15106	-677.4917	-378.99402	1085.671	-445.01959	-420.21103	770.5105	-118.44357	-490.58777	887.59845	-113.03033	-668.44452	642.57623	-425.88025	-749.49908	705.92511	-399.23706
223	1.105	-307.96835	136.19344	-555.01849	-358.7821	155.1534	-530.65344	-141.21648	536.10565	-489.36584	-207.87045	549.58954	-413.19562	-120.29263	930.01288	-682.20044	-373.34769	1090.9243	-443.98032	-407.28152	789.71393	-105.58428	-473.29529	907.7392	-102.1459	-676.43646	654.02277	-391.28867	-757.25891	721.56067	-359.24878
224	1.11	-310.2099	136.24394	-553.91589	-359.76398	155.85269	-529.43457	-140.95413	535.73767	-490.05313	-206.7213	549.79791	-412.80286	-122.36149	929.68042	-686.71039	-368.966	1096.0078	-443.4173	-394.10794	808.99603	-94.245407	-455.30377	927.70831	-92.939972	-683.80457	665.88367	-356.54166	-760.99164	736.23175	-322.1008
